<?xml version="1.0" encoding="UTF-8"?>
<svg id="Layer_2" data-name="Layer 2" xmlns="http://www.w3.org/2000/svg" viewBox="0 0 113.67 148.44">
  <defs>
    <style>
      .cls-1 {
        fill: #231f20;
      }
    </style>
  </defs>
  <g id="Layer_1-2" data-name="Layer 1">
    <path class="cls-1" d="M30.58,96.14v52.3H0V0h57.91c11.15,0,20.95,2.04,29.41,6.12s14.97,9.87,19.52,17.38c4.55,7.51,6.83,16.06,6.83,25.64,0,14.55-4.98,26.01-14.94,34.41-9.96,8.39-23.74,12.59-41.34,12.59h-26.81ZM30.58,71.36h27.32c8.09,0,14.25-1.9,18.5-5.71,4.25-3.81,6.37-9.24,6.37-16.31s-2.14-13.15-6.42-17.64-10.19-6.8-17.74-6.93h-28.04v46.59Z"/>
  </g>
</svg>